# xmcd
#
# Track frame offsets:
#	150
#	22130
#	43895
#	61097
#	81659
#	92183
#	109529
#	125079
#	138497
#	161838
#	183164
#
# Disc length: 2767 seconds
#
# Revision: 1
# Processed by: cddbd v1.5.2PL0 Copyright (c) Steve Scherf et al.
# Submitted via: audiograbber 1.83.01
#
DISCID=9d0acd0b
DTITLE=multiple - Putumayo Presents American Blues
DYEAR=2003
DGENRE=Blues
TTITLE0=Arthur Adams and BB King - Get Next To Me
TTITLE1=Otis Rush - I Got the Blues
TTITLE2=Raful Neal - Call Me Baby
TTITLE3=Ruth Brown - Good Day For the Blues
TTITLE4=Henry Gray - ow Could You Do It?
TTITLE5=Robert Cray and Albert Collins - She's Into Something
TTITLE6=Sugar Pie Desanto - Hello, San Francisco (Part 1)
TTITLE7=Sunpie - Sunpie's Romp and Stomp
TTITLE8=Eric Bibb - Needed Time
TTITLE9=Susan Tedeschi - Just won't burn
TTITLE10=Solomon Burke - None Of Us Are Free
EXTD=
EXTT0=
EXTT1=
EXTT2=
EXTT3=
EXTT4=
EXTT5=
EXTT6=
EXTT7=
EXTT8=
EXTT9=
EXTT10=
PLAYORDER=
